# xmcd
#
# Track frame offsets:
#	150
#	11446
#	26326
#	40524
#	61199
#	72241
#	91408
#	105245
#	122556
#	143607
#	154352
#	176134
#	193260
#	214612
#	230073
#	241748
#
# Disc length: 3359 seconds
#
# Revision: 3
# Processed by: cddbd v1.5.2PL0 Copyright (c) Steve Scherf et al.
# Submitted via: audiograbber 1.83.01
#
DISCID=cc0d1d10
DTITLE=Tom Gaebel - Introducing: Myself (Special Tour Edition)
DYEAR=2006
DGENRE=Jazz
TTITLE0=Let The Good Times Roll
TTITLE1=Up Up And Away
TTITLE2=Make Someone Happy
TTITLE3=Where Do I Begin (Love Story)
TTITLE4=I'm Sitting On The Top Of The World
TTITLE5=The Summertime
TTITLE6=Hey Look Me Over
TTITLE7=Once I Fell In Love
TTITLE8=Where Do You Start
TTITLE9=Ac-Cent-Tchu-Ate The Positive
TTITLE10=Look At Me One Last Time
TTITLE11=Walk Between The Raindrops
TTITLE12=Walk Between The Raindrops (live)
TTITLE13=Up Up And Away (live)
TTITLE14=Let The Good Times Roll (live)
TTITLE15=Winter Wonderland
EXTD=YEAR: 2006
EXTT0=
EXTT1=
EXTT2=
EXTT3=
EXTT4=
EXTT5=
EXTT6=
EXTT7=
EXTT8=
EXTT9=
EXTT10=
EXTT11=
EXTT12=
EXTT13=
EXTT14=
EXTT15=
PLAYORDER=
